<?xml version="1.0" standalone="no"?>
<!DOCTYPE svg PUBLIC "-//W3C//DTD SVG 20010904//EN"
 "http://www.w3.org/TR/2001/REC-SVG-20010904/DTD/svg10.dtd">
<svg version="1.0" xmlns="http://www.w3.org/2000/svg"
 width="256.000000pt" height="256.000000pt" viewBox="0 0 256.000000 256.000000"
 preserveAspectRatio="xMidYMid meet">
<metadata>
Created by potrace 1.14, written by Peter Selinger 2001-2017
</metadata>
<g transform="translate(0.000000,256.000000) scale(0.100000,-0.100000)"
fill="#000000" stroke="none">
<path d="M87 2436 c-27 -13 -50 -36 -64 -61 l-23 -40 0 -1055 0 -1056 22 -44
c17 -32 35 -51 65 -66 42 -21 51 -22 542 -20 481 1 501 2 514 20 16 22 12 49
-9 67 -11 9 -139 12 -497 12 -470 0 -510 2 -529 31 -4 6 -8 380 -8 832 l0 821
1180 0 1180 0 0 -821 c-1 -717 -3 -824 -16 -841 -14 -19 -27 -20 -479 -21
-493 -1 -495 -1 -495 -49 0 -53 -2 -53 485 -53 264 0 466 4 488 9 50 13 92 54
106 104 9 30 11 316 9 1095 l-3 1055 -23 33 c-13 18 -40 41 -60 51 -35 17 -90
18 -1190 18 -1153 0 -1154 0 -1195 -21z m2359 -100 c19 -27 21 -356 2 -357
-16 -1 -2330 -1 -2340 0 -5 1 -8 76 -8 169 1 169 5 192 40 204 8 3 527 4 1153
4 1115 -1 1139 -1 1153 -20z"/>
<path d="M301 2198 c-29 -30 -7 -78 35 -78 28 0 54 34 47 61 -10 37 -55 47
-82 17z"/>
<path d="M556 2207 c-22 -16 -25 -65 -5 -78 36 -22 79 -3 79 36 0 42 -42 65
-74 42z"/>
<path d="M800 2200 c-24 -24 -25 -43 -4 -64 18 -19 55 -21 72 -4 18 18 15 53
-6 71 -24 22 -38 21 -62 -3z"/>
<path d="M1240 2212 c-20 -7 -30 -22 -30 -48 0 -47 1 -47 530 -47 534 -1 530
-1 530 49 0 52 -5 53 -530 52 -267 -1 -492 -3 -500 -6z"/>
<path d="M529 1482 c-37 -11 -39 -30 -39 -307 0 -214 3 -275 14 -290 12 -16
28 -19 127 -20 99 -1 119 2 159 22 102 51 129 177 59 274 -10 13 -8 22 9 43
45 59 38 167 -15 221 -50 49 -80 58 -194 60 -58 1 -112 -1 -120 -3z m238 -127
c29 -33 29 -67 0 -101 -22 -25 -30 -27 -98 -28 l-74 -1 -3 60 c-5 102 -4 105
80 100 64 -3 75 -7 95 -30z m0 -260 c29 -33 29 -67 0 -101 -21 -24 -32 -27
-88 -29 -35 -1 -70 0 -76 3 -13 4 -19 142 -8 154 3 3 38 4 77 2 64 -2 75 -5
95 -29z"/>
<path d="M992 1463 c-5 -10 -9 -121 -8 -248 1 -196 4 -235 18 -262 46 -83 172
-119 193 -54 10 31 -10 56 -54 70 -22 6 -44 17 -48 24 -4 6 -8 112 -9 235 -1
161 -5 226 -14 237 -17 21 -67 19 -78 -2z"/>
<path d="M1373 1210 c-124 -57 -147 -216 -43 -304 18 -14 44 -29 58 -32 15 -3
32 -7 38 -9 21 -6 97 16 126 36 39 28 70 92 70 146 0 126 -135 215 -249 163z
m107 -97 c34 -23 40 -33 40 -68 -1 -86 -116 -107 -149 -27 -16 38 1 80 39 99
33 17 41 16 70 -4z"/>
<path d="M1837 1220 c-107 -32 -159 -157 -108 -259 39 -76 124 -111 214 -88
26 7 27 6 27 -32 0 -58 -16 -90 -52 -105 -54 -23 -100 5 -112 70 -14 69 -96
59 -96 -12 0 -94 90 -175 188 -167 78 5 141 57 162 131 13 49 13 282 -1 337
-14 54 -69 109 -126 124 -44 12 -57 13 -96 1z m110 -129 c27 -31 28 -42 8 -80
-37 -73 -144 -48 -145 34 0 35 6 45 39 68 32 21 69 13 98 -22z"/>
<path d="M531 467 c-54 -14 -49 -80 6 -91 16 -3 358 -5 762 -4 703 0 734 1
752 19 11 11 19 25 19 33 0 17 -26 46 -43 47 -65 5 -1474 2 -1496 -4z"/>
<path d="M1277 170 c-19 -27 -11 -59 17 -69 46 -18 83 18 62 60 -16 32 -59 37
-79 9z"/>
</g>
</svg>
